<svg xmlns="http://www.w3.org/2000/svg" width="250" height="375" viewBox="0 0 250 375"><rect width="100%" height="100%" fill="#DDDDDD"/><path fill="#999999" d="M60.35 195.63h6.12q.66 0 1.05.38.38.37.38.98v2.44H51.53v-1.35q0-.42.18-.87.17-.45.55-.82l7.24-7.26q.91-.92 1.63-1.76t1.2-1.67q.47-.82.73-1.67t.26-1.79q0-.86-.25-1.51t-.7-1.1q-.46-.45-1.09-.67-.64-.22-1.43-.22-.73 0-1.34.21-.62.2-1.1.57t-.81.87q-.33.49-.49 1.09-.29.76-.73 1-.45.25-1.29.12l-2.14-.38q.24-1.72.95-3.01.71-1.3 1.78-2.16 1.06-.87 2.44-1.31 1.38-.43 2.96-.43 1.65 0 3.02.48 1.37.49 2.34 1.38.98.89 1.52 2.15.55 1.25.55 2.79 0 1.32-.39 2.44t-1.04 2.14q-.65 1.03-1.53 1.98-.87.96-1.83 1.95l-5.38 5.49q.78-.23 1.55-.35.76-.13 1.46-.13m16.61-16.36-.84 4.96q.79-.16 1.52-.24.72-.07 1.4-.07 1.88 0 3.32.56 1.43.56 2.41 1.55.97.99 1.46 2.32.5 1.33.5 2.86 0 1.9-.67 3.47t-1.86 2.68q-1.18 1.11-2.81 1.72-1.62.61-3.54.61-1.12 0-2.13-.23-1-.23-1.89-.62-.88-.38-1.63-.89-.75-.5-1.34-1.06l1.25-1.73q.4-.56 1.04-.56.41 0 .84.26t.98.58q.56.31 1.31.57.75.27 1.8.27 1.13 0 1.98-.36.86-.37 1.43-1.02t.86-1.55.29-1.96q0-1.94-1.13-3.04t-3.34-1.1q-1.7 0-3.49.63l-2.54-.73 1.98-11.58H85.9v1.73q0 .88-.54 1.42-.54.55-1.85.55zm29.92 8.23q0 3.12-.67 5.42t-1.85 3.8q-1.18 1.51-2.79 2.24t-3.47.73q-1.87 0-3.46-.73t-2.76-2.24q-1.17-1.5-1.83-3.8t-.66-5.42q0-3.13.66-5.43.66-2.29 1.83-3.79t2.76-2.24q1.59-.73 3.46-.73 1.86 0 3.47.73 1.61.74 2.79 2.24t1.85 3.79q.67 2.3.67 5.43m-4.21 0q0-2.59-.38-4.29t-1.02-2.71q-.63-1-1.46-1.41-.82-.4-1.71-.4-.88 0-1.69.4-.82.41-1.45 1.41-.62 1.01-1 2.71-.37 1.7-.37 4.29t.37 4.29q.38 1.7 1 2.71.63 1 1.45 1.41.81.4 1.69.4.89 0 1.71-.4.83-.41 1.46-1.41.64-1.01 1.02-2.71t.38-4.29m30.41 6.47-2.16 2.13-5.6-5.6-5.64 5.63-2.16-2.13 5.64-5.66-5.38-5.38 2.15-2.14 5.38 5.38 5.34-5.35 2.18 2.15-5.36 5.36zm13.73-11.37-2.15-.38q.25-1.72.96-3.01.71-1.3 1.77-2.16 1.07-.87 2.44-1.31 1.38-.43 2.97-.43 1.65 0 2.97.47 1.33.47 2.27 1.3t1.45 1.96q.5 1.12.5 2.42 0 1.14-.26 2.01-.25.86-.73 1.51-.48.64-1.19 1.08-.71.45-1.6.75 2.15.67 3.2 2.06 1.06 1.39 1.06 3.48 0 1.78-.66 3.15t-1.78 2.3q-1.13.94-2.6 1.42-1.48.47-3.13.47-1.8 0-3.13-.41-1.34-.41-2.33-1.22t-1.68-1.98q-.7-1.17-1.19-2.71l1.8-.74q.71-.3 1.32-.15.62.14.9.66.3.58.66 1.14.35.56.85 1 .49.44 1.16.71t1.59.27q1.04 0 1.82-.34.77-.33 1.29-.88.52-.54.78-1.21.25-.67.25-1.35 0-.85-.18-1.56-.18-.7-.76-1.19-.58-.5-1.66-.78t-2.89-.28v-2.9q1.5-.02 2.49-.28.99-.27 1.58-.74.58-.47.81-1.13t.23-1.45q0-1.68-.94-2.56-.94-.87-2.51-.87-.72 0-1.33.21-.61.2-1.1.57t-.82.87q-.33.49-.49 1.09-.28.76-.74 1-.45.25-1.27.12m16.74-7.03h16.49v1.77q0 .79-.17 1.28-.16.48-.33.81l-9.04 18.61q-.28.58-.79.99-.51.4-1.37.4h-2.96l9.23-18.23q.31-.56.62-1.03.3-.47.68-.9h-11.42q-.38 0-.66-.28t-.28-.66zm25.15 3.7-.84 4.96q.79-.16 1.52-.24.72-.07 1.4-.07 1.88 0 3.31.56 1.44.56 2.41 1.55.98.99 1.47 2.32.5 1.33.5 2.86 0 1.9-.67 3.47t-1.86 2.68-2.81 1.72q-1.63.61-3.54.61-1.12 0-2.13-.23-1-.23-1.89-.62-.88-.38-1.63-.89-.75-.5-1.35-1.06l1.26-1.73q.39-.56 1.04-.56.41 0 .84.26t.98.58q.55.31 1.3.57.76.27 1.81.27 1.12 0 1.98-.36.86-.37 1.43-1.02t.86-1.55.29-1.96q0-1.94-1.13-3.04-1.14-1.1-3.35-1.1-1.7 0-3.48.63l-2.54-.73 1.98-11.58h11.78v1.73q0 .88-.54 1.42-.55.55-1.85.55z"/></svg>