<svg xmlns="http://www.w3.org/2000/svg" width="645" height="967" viewBox="0 0 645 967"><rect width="100%" height="100%" fill="#DDDDDD"/><path fill="#999999" d="M177.01 442.39h10.79v65.79h-6.28q-1.46 0-2.44-.48-.97-.48-1.88-1.61l-34.36-43.86q.28 3 .28 5.55v40.4h-10.79v-65.79h6.42q.77 0 1.34.07.57.06 1 .27.43.2.84.59t.91 1.02l34.49 44.05q-.13-1.59-.23-3.14-.09-1.55-.09-2.87zm44.32 18.38q5.19 0 9.44 1.68 4.26 1.69 7.28 4.78 3.03 3.09 4.67 7.55 1.63 4.46 1.63 9.97 0 5.55-1.63 10.01-1.64 4.46-4.67 7.6-3.02 3.14-7.28 4.82-4.25 1.68-9.44 1.68-5.23 0-9.51-1.68t-7.3-4.82q-3.03-3.14-4.69-7.6t-1.66-10.01q0-5.51 1.66-9.97t4.69-7.55q3.02-3.09 7.3-4.78 4.28-1.68 9.51-1.68m0 39.45q5.82 0 8.62-3.92 2.8-3.91 2.8-11.46t-2.8-11.51-8.62-3.96q-5.91 0-8.76 3.98-2.84 3.98-2.84 11.49t2.84 11.44q2.85 3.94 8.76 3.94m67.8-57.83v65.79h-12.29v-65.79zm24.16 65.79h-11.24V461.5h6.87q2.18 0 2.86 2.04l.73 3.46q1.23-1.36 2.57-2.5 1.35-1.14 2.87-1.96t3.28-1.29q1.75-.48 3.84-.48 4.41 0 7.26 2.39 2.84 2.39 4.25 6.35 1.09-2.33 2.73-3.99t3.6-2.7q1.95-1.05 4.16-1.55t4.44-.5q3.86 0 6.87 1.18 3 1.18 5.05 3.46 2.04 2.28 3.11 5.55 1.07 3.28 1.07 7.51v29.71h-11.24v-29.71q0-4.46-1.95-6.71-1.96-2.25-5.74-2.25-1.72 0-3.2.59t-2.6 1.7q-1.11 1.12-1.75 2.8t-.64 3.87v29.71h-11.28v-29.71q0-4.69-1.89-6.83-1.89-2.13-5.53-2.13-2.45 0-4.57 1.2-2.11 1.21-3.93 3.3zm89.63-12.06v-7.87q-4.87.23-8.19.84-3.32.62-5.32 1.57-2 .96-2.87 2.23-.86 1.28-.86 2.78 0 2.96 1.75 4.23t4.57 1.27q3.46 0 5.98-1.25 2.53-1.25 4.94-3.8m-23.75-24.52-2-3.6q8.05-7.37 19.38-7.37 4.1 0 7.33 1.34 3.23 1.35 5.46 3.74 2.23 2.38 3.39 5.71 1.16 3.32 1.16 7.28v29.48h-5.1q-1.59 0-2.46-.48-.86-.48-1.36-1.93l-1-3.37q-1.78 1.59-3.46 2.8t-3.5 2.02q-1.82.82-3.89 1.26-2.07.43-4.58.43-2.95 0-5.46-.8-2.5-.79-4.32-2.39-1.82-1.59-2.82-3.96-1-2.36-1-5.5 0-1.78.59-3.53t1.93-3.34q1.35-1.59 3.48-3 2.14-1.41 5.26-2.46t7.26-1.71 9.46-.79v-2.73q0-4.69-2-6.94t-5.78-2.25q-2.73 0-4.53.63-1.79.64-3.16 1.44-1.36.79-2.48 1.43-1.11.64-2.48.64-1.18 0-2-.62-.82-.61-1.32-1.43m62.33 12.1q2.1 0 3.64-.57 1.55-.57 2.58-1.57 1.02-1 1.54-2.41.53-1.41.53-3.09 0-3.46-2.07-5.49-2.07-2.02-6.22-2.02-4.14 0-6.21 2.02-2.07 2.03-2.07 5.49 0 1.64.53 3.05.52 1.41 1.54 2.43 1.03 1.02 2.6 1.59t3.61.57m12.7 26.57q0-1.36-.82-2.23-.82-.86-2.23-1.34t-3.3-.7q-1.89-.23-4-.35-2.12-.11-4.37-.2t-4.39-.36q-1.87 1.04-3.03 2.45t-1.16 3.28q0 1.23.62 2.3.61 1.07 1.95 1.84 1.35.77 3.48 1.21 2.14.43 5.24.43 3.14 0 5.41-.48 2.28-.48 3.76-1.32 1.47-.84 2.16-2 .68-1.16.68-2.53m-2.23-47.18h13.42v4.19q0 2-2.41 2.45l-4.19.78q.96 2.41.96 5.27 0 3.46-1.39 6.26t-3.84 4.76q-2.46 1.95-5.8 3.02-3.35 1.07-7.22 1.07-1.36 0-2.63-.14-1.28-.13-2.51-.36-2.18 1.32-2.18 2.96 0 1.41 1.3 2.07 1.29.66 3.43.93t4.87.34 5.6.3q2.86.22 5.59.79t4.87 1.8 3.44 3.34q1.29 2.12 1.29 5.44 0 3.1-1.52 6.01-1.53 2.91-4.41 5.19-2.89 2.27-7.1 3.66t-9.58 1.39q-5.28 0-9.19-1.03-3.91-1.02-6.51-2.73-2.59-1.7-3.87-3.93-1.27-2.23-1.27-4.65 0-3.27 1.98-5.48 1.98-2.2 5.44-3.52-1.87-.96-2.96-2.55t-1.09-4.19q0-1.04.38-2.16.39-1.11 1.14-2.21.75-1.09 1.89-2.07 1.14-.97 2.68-1.75-3.54-1.91-5.57-5.09-2.02-3.19-2.02-7.47 0-3.45 1.38-6.25 1.39-2.8 3.87-4.78t5.87-3.03q3.39-1.04 7.39-1.04 3.01 0 5.65.61 2.64.62 4.82 1.8m29.39 16.38h21.21q0-2.18-.62-4.12-.61-1.93-1.84-3.39-1.23-1.45-3.12-2.3-1.89-.84-4.39-.84-4.87 0-7.67 2.78-2.79 2.77-3.57 7.87m28.67 6.78h-28.89q.27 3.59 1.27 6.21t2.64 4.32q1.64 1.71 3.89 2.55t4.98.84 4.71-.63q1.98-.64 3.46-1.42 1.48-.77 2.59-1.41 1.12-.63 2.16-.63 1.41 0 2.1 1.04l3.23 4.1q-1.87 2.18-4.19 3.66t-4.85 2.37q-2.52.88-5.14 1.25-2.61.36-5.07.36-4.87 0-9.05-1.61-4.19-1.62-7.28-4.78-3.1-3.16-4.87-7.83-1.78-4.66-1.78-10.8 0-4.78 1.55-8.99t4.44-7.32q2.88-3.12 7.05-4.94 4.16-1.82 9.39-1.82 4.42 0 8.15 1.41t6.41 4.12q2.69 2.7 4.21 6.64 1.53 3.94 1.53 8.99 0 2.54-.55 3.43t-2.09.89"/></svg>